Coordinates
version=1
nRows=30
nColumns=38
inDegrees=no

Units are S.I. units (second, meters, Newtons, ...)
If the header above contains a line with 'inDegrees', this indicates whether rotational values are in degrees (yes) or radians (no).

endheader
time	pelvis_tilt	pelvis_list	pelvis_rotation	pelvis_tx	pelvis_ty	pelvis_tz	hip_flexion_r	hip_adduction_r	hip_rotation_r	knee_angle_r	ankle_angle_r	subtalar_angle_r	mtp_angle_r	hip_flexion_l	hip_adduction_l	hip_rotation_l	knee_angle_l	ankle_angle_l	subtalar_angle_l	mtp_angle_l	lumbar_extension	lumbar_bending	lumbar_rotation	arm_flex_r	arm_add_r	arm_rot_r	elbow_flex_r	pro_sup_r	wrist_flex_r	wrist_dev_r	arm_flex_l	arm_add_l	arm_rot_l	elbow_flex_l	pro_sup_l	wrist_flex_l	wrist_dev_l
0	3.01152	1.43418	-1.58405	0.780286	-0.487433	0.940382	-0.446161	0.05343	-0.210406	0.0666773	0.173173	0	0	0.169092	0.0206913	-0.406113	0	-0.043724	0	0	-0.273283	0.0118341	0.224835	0.044501	-0.308674	0.714759	0.341352	0.895102	0	0	0.0916326	-0.149227	0.161432	0.222139	1.5708	0	0
0.01	3.012	1.43134	-1.58925	0.781142	-0.477288	0.93973	-0.452971	0.0479634	-0.20981	0.0803967	0.175816	0	0	0.168231	0.021248	-0.396872	0.0146649	-0.0324677	0	0	-0.273994	0.00902116	0.230568	0.0407449	-0.308632	0.711471	0.342114	0.896847	0	0	0.0865534	-0.150081	0.163735	0.227434	1.5708	0	0
0.02	3.01977	1.42873	-1.60336	0.781986	-0.466476	0.939161	-0.456839	0.0393001	-0.214534	0.100658	0.18102	0	0	0.164457	0.0239953	-0.386028	0.0332749	-0.0201568	0	0	-0.272908	0.00510215	0.239196	0.033784	-0.308679	0.703292	0.343369	0.899118	0	0	0.0807339	-0.150646	0.166742	0.230591	1.5708	0	0
0.03	3.0345	1.4259	-1.62438	0.782722	-0.455466	0.938759	-0.458404	0.0284678	-0.222492	0.126158	0.188394	0	0	0.158497	0.0288282	-0.37227	0.044731	-0.0169811	0	0	-0.271653	5.01773e-05	0.247971	0.0260665	-0.308289	0.692052	0.344282	0.902132	0	0	0.0748937	-0.151482	0.169688	0.233719	1.5708	0	0
0.04	3.05163	1.42343	-1.64682	0.783339	-0.444286	0.938442	-0.457884	0.016776	-0.232491	0.154776	0.192937	0	0	0.152353	0.0338924	-0.360389	0.0525654	-0.0299707	0	0	-0.26963	-0.00542534	0.255905	0.0175826	-0.307352	0.678973	0.345232	0.906517	0	0	0.068617	-0.152974	0.172664	0.237828	1.5708	0	0
0.05	3.06532	1.42166	-1.66569	0.783934	-0.43282	0.938127	-0.455536	0.00506973	-0.241593	0.185354	0.193274	0	0	0.146859	0.0369225	-0.357699	0.0601687	-0.0591011	0	0	-0.266001	-0.0104408	0.263869	0.00785698	-0.306013	0.664283	0.346667	0.912275	0	0	0.061064	-0.155131	0.175971	0.243768	1.5708	0	0
0.06	3.08163	1.42062	-1.68633	0.784334	-0.42111	0.937919	-0.450906	-0.00757493	-0.250323	0.21869	0.19058	0	0	0.142535	0.038911	-0.36443	0.0706076	-0.0892655	0	0	-0.260938	-0.0154405	0.270847	-0.00246492	-0.304374	0.649069	0.348244	0.919289	0	0	0.052522	-0.15745	0.179197	0.249645	1.5708	0	0
0.07	3.10957	1.41928	-1.71675	0.784413	-0.40939	0.938067	-0.443784	-0.0227318	-0.260253	0.256759	0.18617	0	0	0.139067	0.0424512	-0.372037	0.0859591	-0.100914	0	0	-0.25616	-0.0218771	0.2756	-0.0121674	-0.302273	0.634695	0.349267	0.927644	0	0	0.0444601	-0.159589	0.181457	0.25458	1.5708	0	0
0.08	-3.13019	1.41631	-1.76138	0.784268	-0.397815	0.938753	-0.434926	-0.0412806	-0.269964	0.298962	0.17793	0	0	0.134907	0.0490546	-0.376132	0.105322	-0.0928313	0	0	-0.253372	-0.031116	0.278408	-0.0202644	-0.299363	0.621782	0.349029	0.936974	0	0	0.0373046	-0.161841	0.18286	0.260495	1.5708	0	0
0.09	-3.07855	1.41153	-1.81237	0.783946	-0.386426	0.940008	-0.42412	-0.0618055	-0.278307	0.345597	0.164928	0	0	0.128919	0.0577521	-0.375101	0.125337	-0.0802327	0	0	-0.252841	-0.0422326	0.278651	-0.0262276	-0.295636	0.610803	0.347563	0.946308	0	0	0.0309211	-0.164485	0.184098	0.266489	1.5708	0	0
0.1	-2.97867	1.41877	-1.91625	0.784545	-0.376107	0.939457	-0.39185	-0.0843204	-0.242734	0.396719	0.242328	0	0	0.141247	0.0678409	-0.380358	0.149097	-0.0677947	0	0	-0.238258	-0.0602096	0.282939	-0.03049	-0.289703	0.60194	0.346135	0.955873	0	0	0.0257366	-0.169497	0.185573	0.273316	1.5708	0	0
0.11	-2.99764	1.4064	-1.88627	0.782561	-0.363874	0.942811	-0.384516	-0.0981729	-0.279352	0.468841	0.23684	0	0	0.117773	0.0728974	-0.373208	0.156696	-0.0604684	0	0	-0.248247	-0.0589397	0.274181	-0.0364975	-0.289201	0.593058	0.345747	0.965913	0	0	0.0201904	-0.168051	0.186379	0.275139	1.5708	0	0
0.12	-2.94743	1.40718	-1.92831	0.780952	-0.352328	0.943819	-0.359044	-0.118457	-0.289978	0.515962	0.0823549	0	0	0.110817	0.0853778	-0.366427	0.159631	-0.0547402	0	0	-0.2413	-0.0657603	0.26748	-0.042242	-0.285677	0.576921	0.343372	0.989088	0	0	0.0133604	-0.169347	0.187148	0.280578	1.5708	0	0
0.13	-2.84313	1.42013	-2.02852	0.780816	-0.341949	0.942644	-0.312934	-0.136287	-0.259198	0.564397	0.0375562	0	0	0.123212	0.0973261	-0.366019	0.166718	-0.0462387	0	0	-0.216765	-0.0746305	0.272854	-0.0528028	-0.281061	0.563266	0.342382	0.996567	0	0	0.0153755	-0.172609	0.203195	0.276676	1.5708	0	0
0.14	-2.87181	1.41659	-1.98582	0.777617	-0.33015	0.944852	-0.285777	-0.150524	-0.284391	0.645471	-0.0106146	0	0	0.10095	0.103795	-0.354789	0.158337	-0.0428917	0	0	-0.222825	-0.0702314	0.251659	-0.0507766	-0.283859	0.565185	0.343657	1.00162	0	0	0.00206791	-0.171068	0.188403	0.287991	1.5708	0	0
0.15	-2.8215	1.42823	-2.02778	0.775367	-0.319172	0.944579	-0.235758	-0.166039	-0.273863	0.714902	-0.0654861	0	0	0.101574	0.112761	-0.34775	0.152898	-0.0405862	0	0	-0.209626	-0.0702915	0.231914	-0.0456704	-0.286252	0.580927	0.343099	1.00878	0	0	-0.020369	-0.171673	0.15291	0.31557	1.5708	0	0
0.16	-2.80813	1.4446	-2.03084	0.773321	-0.309008	0.943346	-0.17821	-0.166855	-0.252365	0.795303	-0.049006	0	0	0.10015	0.114453	-0.337135	0.137692	-0.0377705	0	0	-0.191611	-0.0616177	0.223764	-0.0502239	-0.289886	0.582374	0.346741	1.00832	0	0	-0.0262402	-0.171423	0.150965	0.319783	1.5708	0	0
0.17	-2.82057	1.43446	-2.00849	0.771446	-0.298492	0.94625	-0.164465	-0.187781	-0.262071	0.830683	-0.187821	0	0	0.0799976	0.121673	-0.327571	0.143711	-0.0316268	0	0	-0.201891	-0.0619588	0.214331	-0.0509664	-0.292286	0.586284	0.348435	1.00259	0	0	-0.0278165	-0.171536	0.14988	0.322538	1.5708	0	0
0.18	-2.79395	1.44625	-2.02502	0.769629	-0.288584	0.944959	-0.112328	-0.19435	-0.24415	0.896078	-0.242296	0	0	0.0764932	0.1255	-0.317495	0.132601	-0.0240715	0	0	-0.187838	-0.0578133	0.205596	-0.0552509	-0.295462	0.586344	0.353927	1.00023	0	0	-0.0329805	-0.173671	0.150893	0.328193	1.5708	0	0
0.19	-2.73453	1.43896	-2.08278	0.769544	-0.278888	0.946135	-0.0753844	-0.211437	-0.218536	0.954887	-0.299772	0	0	0.0477656	0.144189	-0.294969	0.103963	-0.031949	0	0	-0.191498	-0.0698468	0.202674	-0.0547256	-0.293613	0.586788	0.355223	0.998056	0	0	-0.0352039	-0.1796	0.152802	0.335019	1.5708	0	0
0.2	-2.69144	1.43874	-2.12149	0.768987	-0.26964	0.946275	-0.0322691	-0.221402	-0.194939	1.01163	-0.348515	0	0	0.0379242	0.15195	-0.288033	0.10044	-0.0260648	0	0	-0.19014	-0.0754364	0.198283	-0.0549584	-0.293511	0.586295	0.358204	0.995541	0	0	-0.0384168	-0.185626	0.160551	0.345603	1.5708	0	0
0.21	-2.65761	1.4474	-2.14616	0.767729	-0.260965	0.945252	0.0166583	-0.223871	-0.176826	1.06515	-0.376805	0	0	0.053285	0.146491	-0.300518	0.132147	0.00135434	0	0	-0.182451	-0.0734025	0.19002	-0.0557377	-0.295436	0.585409	0.363867	0.992813	0	0	-0.0438482	-0.193035	0.180609	0.363932	1.5708	0	0
0.22	-2.6926	1.45396	-2.10773	0.767294	-0.251677	0.944627	0.0552564	-0.216805	-0.156039	1.10899	-0.384734	0	0	0.0304344	0.147256	-0.273509	0.101057	0.00156184	0	0	-0.179392	-0.0653962	0.188065	-0.0584262	-0.298323	0.582324	0.371078	0.992986	0	0	-0.0458149	-0.195399	0.186925	0.369405	1.5708	0	0
0.23	-2.80239	1.47212	-1.99255	0.766965	-0.242627	0.942589	0.101434	-0.193809	-0.138838	1.15171	-0.371532	0	0	0.0393076	0.127046	-0.2571	0.119065	0.0289065	0	0	-0.168101	-0.0445625	0.186068	-0.0636406	-0.303218	0.580658	0.381857	0.994653	0	0	-0.0519411	-0.199831	0.205519	0.384336	1.5708	0	0
0.24	-2.90095	1.47783	-1.89068	0.767048	-0.233851	0.942308	0.137705	-0.178587	-0.121802	1.18944	-0.342466	0	0	0.0293393	0.119437	-0.240514	0.115923	0.039191	0	0	-0.167597	-0.033225	0.184912	-0.0647973	-0.304104	0.580461	0.386323	0.994938	0	0	-0.0510584	-0.20137	0.213472	0.386757	1.5708	0	0
0.25	-2.96622	1.47878	-1.82426	0.767653	-0.225803	0.94291	0.179518	-0.161702	-0.0998021	1.25187	-0.209316	0	0	0.0150028	0.114895	-0.233555	0.10841	0.0423879	0	0	-0.17229	-0.0283303	0.185008	-0.0620098	-0.301662	0.579746	0.386457	0.99499	0	0	-0.0459025	-0.202279	0.218472	0.384215	1.5708	0	0
0.26	-2.97307	1.47754	-1.81194	0.766366	-0.217463	0.943589	0.20947	-0.16171	-0.0891001	1.27917	-0.17348	0	0	0.00590125	0.113972	-0.235452	0.114366	0.050221	0	0	-0.177056	-0.0262632	0.180684	-0.0611715	-0.301531	0.575182	0.387646	0.997774	0	0	-0.0375188	-0.196974	0.217622	0.370125	1.5708	0	0
0.27	-2.80533	1.43452	-1.98287	0.766668	-0.209691	0.950493	0.201119	-0.194801	-0.0660759	1.29013	-0.148219	0	0	-0.0652566	0.156486	-0.236526	0.0629949	0.00661477	0	0	-0.22223	-0.0630144	0.178953	-0.047468	-0.289066	0.567054	0.373561	1.00354	0	0	-0.0167662	-0.194109	0.206908	0.346068	1.5708	0	0
0.28	-2.80205	1.42838	-1.9787	0.764966	-0.201503	0.951838	0.214764	-0.20386	-0.0593821	1.27576	-0.230269	0	0	-0.0653391	0.157295	-0.243634	0.0944947	0.0229713	0	0	-0.232332	-0.0632515	0.170757	-0.0444221	-0.28818	0.563219	0.373175	1.00777	0	0	-0.00872634	-0.188712	0.202477	0.33519	1.5708	0	0
0.29	-2.82578	1.43027	-1.94896	0.764023	-0.193823	0.952331	0.242363	-0.196592	-0.050011	1.28415	-0.207997	0	0	-0.0703751	0.151681	-0.244511	0.102459	0.0303434	0	0	-0.236338	-0.0574959	0.165044	-0.0409086	-0.286356	0.556752	0.37211	1.01512	0	0	0.00154579	-0.182768	0.194609	0.31894	1.5708	0	0
